<mxfile host="app.diagrams.net" modified="2021-02-16T19:23:55.116Z" agent="5.0 (Macintosh; Intel Mac OS X 10_15_6) AppleWebKit/605.1.15 (KHTML, like Gecko) Version/14.0.2 Safari/605.1.15" etag="o6IGu-YnHutwwo-ieNsg" version="14.3.1" type="github">
  <diagram id="6OWxTpgxHyWExlmtiZHL" name="Page-1">
    <mxGraphModel dx="1145" dy="1908" grid="1" gridSize="10" guides="1" tooltips="1" connect="1" arrows="1" fold="1" page="1" pageScale="1" pageWidth="850" pageHeight="1100" math="0" shadow="0">
      <root>
        <mxCell id="0" />
        <mxCell id="1" parent="0" />
        <mxCell id="G67LWIOlgZHyGuKzhpm7-9" style="rounded=0;orthogonalLoop=1;jettySize=auto;html=1;" edge="1" parent="1" source="G67LWIOlgZHyGuKzhpm7-1" target="G67LWIOlgZHyGuKzhpm7-6">
          <mxGeometry relative="1" as="geometry" />
        </mxCell>
        <mxCell id="G67LWIOlgZHyGuKzhpm7-10" style="rounded=0;orthogonalLoop=1;jettySize=auto;html=1;" edge="1" parent="1" source="G67LWIOlgZHyGuKzhpm7-1" target="G67LWIOlgZHyGuKzhpm7-7">
          <mxGeometry relative="1" as="geometry" />
        </mxCell>
        <mxCell id="G67LWIOlgZHyGuKzhpm7-11" style="rounded=0;orthogonalLoop=1;jettySize=auto;html=1;" edge="1" parent="1" source="G67LWIOlgZHyGuKzhpm7-1" target="G67LWIOlgZHyGuKzhpm7-8">
          <mxGeometry relative="1" as="geometry" />
        </mxCell>
        <mxCell id="G67LWIOlgZHyGuKzhpm7-20" style="edgeStyle=none;rounded=0;orthogonalLoop=1;jettySize=auto;html=1;startArrow=classic;startFill=1;" edge="1" parent="1" source="G67LWIOlgZHyGuKzhpm7-1" target="G67LWIOlgZHyGuKzhpm7-16">
          <mxGeometry relative="1" as="geometry" />
        </mxCell>
        <mxCell id="G67LWIOlgZHyGuKzhpm7-1" value="Cloud Infrastructure" style="rounded=0;whiteSpace=wrap;html=1;fillColor=#ffe6cc;strokeColor=#d79b00;" vertex="1" parent="1">
          <mxGeometry x="200" y="80" width="120" height="60" as="geometry" />
        </mxCell>
        <mxCell id="G67LWIOlgZHyGuKzhpm7-12" style="edgeStyle=none;rounded=0;orthogonalLoop=1;jettySize=auto;html=1;entryX=0.5;entryY=0;entryDx=0;entryDy=0;" edge="1" parent="1" source="G67LWIOlgZHyGuKzhpm7-2" target="G67LWIOlgZHyGuKzhpm7-5">
          <mxGeometry relative="1" as="geometry" />
        </mxCell>
        <mxCell id="G67LWIOlgZHyGuKzhpm7-13" style="edgeStyle=none;rounded=0;orthogonalLoop=1;jettySize=auto;html=1;entryX=0.5;entryY=0;entryDx=0;entryDy=0;" edge="1" parent="1" source="G67LWIOlgZHyGuKzhpm7-2" target="G67LWIOlgZHyGuKzhpm7-4">
          <mxGeometry relative="1" as="geometry" />
        </mxCell>
        <mxCell id="G67LWIOlgZHyGuKzhpm7-2" value="Solution Design" style="whiteSpace=wrap;html=1;rounded=0;strokeColor=#d79b00;fillColor=#ffe6cc;" vertex="1" parent="1">
          <mxGeometry x="560" y="-190" width="120" height="60" as="geometry" />
        </mxCell>
        <mxCell id="G67LWIOlgZHyGuKzhpm7-14" style="edgeStyle=none;rounded=0;orthogonalLoop=1;jettySize=auto;html=1;entryX=0.5;entryY=0;entryDx=0;entryDy=0;" edge="1" parent="1" source="G67LWIOlgZHyGuKzhpm7-4" target="G67LWIOlgZHyGuKzhpm7-1">
          <mxGeometry relative="1" as="geometry" />
        </mxCell>
        <mxCell id="G67LWIOlgZHyGuKzhpm7-17" style="edgeStyle=none;rounded=0;orthogonalLoop=1;jettySize=auto;html=1;entryX=0.5;entryY=0;entryDx=0;entryDy=0;" edge="1" parent="1" source="G67LWIOlgZHyGuKzhpm7-4" target="G67LWIOlgZHyGuKzhpm7-15">
          <mxGeometry relative="1" as="geometry" />
        </mxCell>
        <mxCell id="G67LWIOlgZHyGuKzhpm7-18" style="edgeStyle=none;rounded=0;orthogonalLoop=1;jettySize=auto;html=1;entryX=0.5;entryY=0;entryDx=0;entryDy=0;" edge="1" parent="1" source="G67LWIOlgZHyGuKzhpm7-4" target="G67LWIOlgZHyGuKzhpm7-16">
          <mxGeometry relative="1" as="geometry" />
        </mxCell>
        <mxCell id="G67LWIOlgZHyGuKzhpm7-4" value="Cloud Infrastructure Design" style="rounded=0;whiteSpace=wrap;html=1;fillColor=#e1d5e7;strokeColor=#9673a6;" vertex="1" parent="1">
          <mxGeometry x="440" y="-80" width="120" height="60" as="geometry" />
        </mxCell>
        <mxCell id="G67LWIOlgZHyGuKzhpm7-5" value="Monitoring Solution Design" style="rounded=0;whiteSpace=wrap;html=1;fillColor=#e1d5e7;strokeColor=#9673a6;" vertex="1" parent="1">
          <mxGeometry x="690" y="-60" width="120" height="60" as="geometry" />
        </mxCell>
        <mxCell id="G67LWIOlgZHyGuKzhpm7-22" style="edgeStyle=none;rounded=0;orthogonalLoop=1;jettySize=auto;html=1;entryX=0;entryY=0.5;entryDx=0;entryDy=0;startArrow=classic;startFill=1;" edge="1" parent="1" source="G67LWIOlgZHyGuKzhpm7-6" target="G67LWIOlgZHyGuKzhpm7-16">
          <mxGeometry relative="1" as="geometry" />
        </mxCell>
        <mxCell id="G67LWIOlgZHyGuKzhpm7-6" value="Network" style="rounded=0;whiteSpace=wrap;html=1;fillColor=#e1d5e7;strokeColor=#9673a6;" vertex="1" parent="1">
          <mxGeometry x="40" y="240" width="120" height="60" as="geometry" />
        </mxCell>
        <mxCell id="G67LWIOlgZHyGuKzhpm7-21" style="edgeStyle=none;rounded=0;orthogonalLoop=1;jettySize=auto;html=1;entryX=0;entryY=0.5;entryDx=0;entryDy=0;startArrow=classic;startFill=1;" edge="1" parent="1" source="G67LWIOlgZHyGuKzhpm7-7" target="G67LWIOlgZHyGuKzhpm7-16">
          <mxGeometry relative="1" as="geometry" />
        </mxCell>
        <mxCell id="G67LWIOlgZHyGuKzhpm7-7" value="Compute" style="rounded=0;whiteSpace=wrap;html=1;fillColor=#e1d5e7;strokeColor=#9673a6;" vertex="1" parent="1">
          <mxGeometry x="200" y="240" width="120" height="60" as="geometry" />
        </mxCell>
        <mxCell id="G67LWIOlgZHyGuKzhpm7-8" value="Storage" style="rounded=0;whiteSpace=wrap;html=1;fillColor=#e1d5e7;strokeColor=#9673a6;" vertex="1" parent="1">
          <mxGeometry x="365" y="240" width="120" height="60" as="geometry" />
        </mxCell>
        <mxCell id="G67LWIOlgZHyGuKzhpm7-15" value="Application" style="rounded=0;whiteSpace=wrap;html=1;fillColor=#ffe6cc;strokeColor=#d79b00;" vertex="1" parent="1">
          <mxGeometry x="440" y="30" width="120" height="60" as="geometry" />
        </mxCell>
        <mxCell id="G67LWIOlgZHyGuKzhpm7-19" style="edgeStyle=none;rounded=0;orthogonalLoop=1;jettySize=auto;html=1;entryX=1;entryY=0.5;entryDx=0;entryDy=0;startArrow=classic;startFill=1;exitX=0;exitY=0.5;exitDx=0;exitDy=0;" edge="1" parent="1" source="G67LWIOlgZHyGuKzhpm7-16" target="G67LWIOlgZHyGuKzhpm7-8">
          <mxGeometry relative="1" as="geometry" />
        </mxCell>
        <mxCell id="G67LWIOlgZHyGuKzhpm7-16" value="CI/CD" style="rounded=0;whiteSpace=wrap;html=1;fillColor=#ffe6cc;strokeColor=#d79b00;" vertex="1" parent="1">
          <mxGeometry x="640" y="80" width="120" height="60" as="geometry" />
        </mxCell>
      </root>
    </mxGraphModel>
  </diagram>
</mxfile>
